<?xml version="1.0" encoding="UTF-8"?><svg xmlns="http://www.w3.org/2000/svg" viewBox="0 0 1920 1080"><defs><style>.cls-1{fill:#f99dd0;stroke:#000;stroke-miterlimit:10;stroke-width:18px;}.cls-2{fill:#fff;stroke-width:0px;}</style></defs><g id="Layer_1"><path class="cls-1" d="m190.91,315s0,0,0,0c20.54-16.23,40.42-33.1,59.65-50.59,8.98-7.93,20.53-18.93,32.68-32.92,4-4.61,11.23-12.7,18.52-23.37,17.4-25.46,28.17-41.23,30.5-64.6,1.11-11.15,2.43-27.45-7.86-44.66-12.73-21.28-41.96-40.1-69.96-35.84-23.35,3.55-39.74,22.23-44.63,27.81-13.23,15.08-15.28,28.32-22.47,28.12-7.09-.2-8.02-13.17-20.22-28.12-3.53-4.32-19.51-23.91-43.31-27.81-27.51-4.51-55.89,13.53-69.03,33.83-11.29,17.44-9.81,34.74-8.79,46.67,3.02,35.42,24.5,60.54,35.76,71.85,2.98,3,18.23,18.22,49.43,48.21,13.03,12.52,26.69,25.51,41.56,37.18,1.78,1.4,18.19,14.25,18.19,14.25Z"/></g><g id="Layer_2"><ellipse class="cls-2" cx="91.33" cy="94.1" rx="6.53" ry="5.49"/><path class="cls-2" d="m60.95,135.4c2.17-11.64,9.36-28.31,19-27.64,1.81.12,4.23.9,4.99,2.06,1.59,2.44-5.39,4.66-10.37,9.41-5.03,4.8-5.57,9.85-6.57,19.14-.81,7.57-1.22,11.35,1.02,16.56,2.52,5.86,7.03,10.49,4.31,12.5-1.13.84-3.4,1.13-5.2.65-7.89-2.1-9.58-19.82-7.18-32.68Z"/></g></svg>