<?xml version="1.0" encoding="UTF-8"?><svg xmlns="http://www.w3.org/2000/svg" viewBox="0 0 1920 1080"><defs><style>.cls-1{fill:#fbc4e3;stroke:#231f20;}.cls-1,.cls-2{stroke-linecap:round;stroke-miterlimit:10;stroke-width:7px;}.cls-2{fill:#f99dd0;stroke:#000;}.cls-3{fill:#d95ba0;}.cls-3,.cls-4{stroke-width:0px;}.cls-4{fill:#fff;}</style></defs><g id="Layer_3"><circle class="cls-2" cx="478.7" cy="503.81" r="337.56"/></g><g id="Layer_5"><ellipse class="cls-1" cx="476.08" cy="503.95" rx="288.42" ry="288.47" transform="translate(-83.75 95.04) rotate(-10.48)"/></g><g id="Layer_4"><ellipse class="cls-3" cx="478.51" cy="503.84" rx="28.99" ry="28.66"/><path class="cls-3" d="m451.47,496.97s57.39,20.94,102.74,46.91c48.72,27.9,98.5,69.33,98.5,69.33,0,0-62.6-24.2-110.38-52.14-42.7-24.97-90.87-64.1-90.87-64.1Z"/><path class="cls-3" d="m478.68,514s-10.57-67.83-10.77-126.75c-.21-63.29,10.77-135.25,10.77-135.25,0,0,10.35,74.76,10.06,137.15-.26,55.76-10.06,124.85-10.06,124.85Z"/></g><g id="Layer_2"><path class="cls-4" d="m311.35,700.97c-26.87-19.46-60.59-56.96-47.8-78.93,2.41-4.13,7.15-8.9,10.97-9.26,8-.76,5.53,18.47,11.77,36.1,6.3,17.8,18.41,25.29,40.7,39.09,18.15,11.24,27.23,16.86,42.94,17.97,17.69,1.25,34.57-3.7,36.49,5.2.8,3.71-1.07,9.43-4.36,13.1-14.4,16.05-61.03-1.76-90.72-23.27Z"/><ellipse class="cls-4" cx="445.58" cy="738.69" rx="17.17" ry="15.42"/></g></svg>