<?xml version="1.0" encoding="UTF-8"?><svg xmlns="http://www.w3.org/2000/svg" viewBox="0 0 1920 1080"><defs><style>.cls-1{fill:#d95ba0;}.cls-1,.cls-2,.cls-3{stroke-width:0px;}.cls-2{fill:#f2c0e7;}.cls-3{fill:#fff;}</style></defs><g id="Layer_2"><rect class="cls-1" x="220" y="205.12" width="1525" height="688.41" rx="344.21" ry="344.21"/></g><g id="Layer_6"><path class="cls-1" d="m806.69,537.41c1.93,0,1.93-3,0-3s-1.93,3,0,3h0Z"/></g><g id="Layer_7"><path class="cls-3" d="m680,422c-2.4,20.89-6.86,59.82-40,87-4.52,3.71-39.17,31.21-83.68,22.67-15.86-3.04-27.82-9.67-35.2-14.61.71,13.78,1.52,34.62,1.52,60.01-.01,36.2-1.7,50.33-2.24,72.23-2.23,90.26,19.72,120.96,1.53,141.13-13.2,14.64-40.43,15.83-53.81,2.95-13.16-12.68-7.37-33.66-1.82-130.1,2-34.81,3-52.7,2.9-76.27-.04-8.61-.24-26.88-3.98-88.92-1.35-22.32-3.02-48.12-5.09-76.84-1.46-15.41-2.38-37.74.91-64.15,3.37-27.08,5.13-41.23,14.85-51.89,8.74-9.59,29.02-8.86,67.54-8.69,25.02.12,37.53.17,54.56,3.46,23.74,4.59,41.43,8,56,20,34.44,28.35,27.92,85.23,26,102Z"/><path class="cls-3" d="m952.32,765.84c-1.55,2.49-5.03,8.58-13.15,12.77-26.41,13.65-71.45,13.45-110.09,14.51-19.4.53-38.86-1.11-58.21.46-26.33,2.13-44.02,6.24-54.35-5.99-4.91-5.82-6.48-13.34-7.01-18.96,1.04-19.35,2.46-48.81,3.51-84.84.37-12.7.92-34.25,1.75-132.75.6-71.32.9-106.99.88-108.79-.34-25.28,2.48-50.63.88-75.86-1.67-26.38-5-45.27,5.26-55.89,6.11-6.32,14.85-6.89,24.54-7.98,2.85-.32,37.74-3.88,52.53,14.04,11.48,13.92,5.87,34.64,3.29,44.72-9.66,37.72-13.75,76.46-21.92,153.92-5.73,54.31-4.83,117.78-4.38,134.16.33,12.38,1.01,20.32,0,34.32-2.29,31.67-9.25,39.43-3.29,47.84,6.69,9.45,24.93,9.07,61.39,8.32,28.64-.59,42.96-.89,58.1-5.2,22.69-6.46,32.99-15.59,47.14-10.4,1.49.55,13.47,5.15,17.54,16.64,4.04,11.41-2.46,21.87-4.38,24.96Z"/><path class="cls-3" d="m1187.92,389.62c-14.93-38.11-35.54-83.68-66.57-85.94-1.63-.12-7.41-.46-17.04,2.79-47.69,16.1-63.63,77.56-66.79,90.84-5.12,26.68-8.63,48.15-10.72,61.51-12.03,76.95-10.41,99.44-22.63,169.16-1.63,9.28-4.02,28.37-9.53,53.3-3.96,17.91-7.95,32.47-10.72,42.05-10.85,21.54-16.12,36.53-17.68,46.85-1.85,12.21,2.3,16.53,4.58,18.77,7.75,7.63,22.37,6.38,36.93,5.13,12.72-1.09,23.97-2.06,32.17-9.23,7.91-6.93,9.09-16.15,9.53-20.5,4.03-40.05,16.92-94.96,33.36-130.2,3.07-6.59,5.92-11.74,7.47-14.47,10.41.66,21.55,1.06,33.35,1.06,13.52,0,26.49-.5,38.46-1.41,24.55,71.87,43.62,124.27,49.38,138.88,1.42,3.61,4.69,11.6,13.1,18.45,6.81,5.55,14.09,7.99,17.87,9.23,3.19,1.04,13.58,4.16,27.4,3.08,8.67-.68,16-1.26,22.63-6.15,2.21-1.63,9.76-7.74,9.53-16.4-.18-6.6-4.8-11.57-8.34-15.38-3.22-3.46-6.24-5.51-7.15-6.15-12.14-8.61-17.74-29.32-20.25-38.96-7.45-28.56-10.98-42.87-11.91-47.16-3.99-18.4-9.16-43.87-14.3-74.84-10.99-55.41-22.25-100.38-30.99-132.63-1.6-5.9-8.84-30.26-21.14-61.64Zm-64.3,185.56c-3.67.03-7.33.06-12.15.14-12.62.2-22.99.58-30.23.89.64-25.81,2.91-47.98,5.39-65.61,0,0,5.5-39.16,25.86-64.59.92-1.14,3.21-3.93,6.47-4.1,3.62-.19,6.52,2.98,7.54,4.1,16.65,18.21,22.63,67.66,22.63,67.66,1.73,14.31,4.65,35.39,9.7,61.51-14.6-.11-26.55-.07-35.21,0Z"/><path class="cls-3" d="m1449.67,473.1c-8.79,15.27-21.86,37.4-38.85,64.04-1.61,14.13-3.27,35.3-2.29,61.04.6,15.58,1.65,19.35,6.86,64.04,11.55,99.19,6.06,78,8,86.06,4.06,16.91,9.28,31.34,0,42.03-7.22,8.32-19.49,10.05-26.28,11.01-17.01,2.4-41.19-1.21-51.41-15.01-7.74-10.44-3.92-21.92,0-40.03,5.43-25.04,4.44-50.89,9.14-76.05,5.21-27.88,8.53-70.29-.1-133.6-20.37-33.63-40.13-59.15-54.74-76.54-21.47-25.56-40.17-52.82-60.55-79.05-13.02-16.76-23.29-29.82-18.28-43.03,4.34-11.45,19.08-20.15,33.13-22.01,3.22-.43,13.32-1.77,22.85,3,9.47,4.74,13.39,13,14.85,16.01,35.52,62.91,62.35,108.59,68.55,117.08,1.74,2.38,4.56,5.52,9.14,7,5.5,1.78,11.13.38,14.85-1,1.9-2.33,3.81-4.67,5.71-7,0,0,21.41-29.8,36.56-57.04,26.03-46.8,22.46-66.03,44.56-75.05,2.02-.83,18.31-7.2,35.42-1,10.88,3.94,22.28,13.04,23.99,24.02,2.19,14.04-12.61,23.97-27.42,39.03-18.82,19.13-13.15,21.61-53.7,92.06Z"/></g><g id="Layer_8"><path class="cls-2" d="m570.86,479s0,0,0,0c8.69-6.85,17.11-13.97,25.25-21.35,3.8-3.35,8.69-7.99,13.83-13.89,1.69-1.95,4.75-5.36,7.84-9.86,7.36-10.75,11.92-17.4,12.91-27.26.47-4.71,1.03-11.59-3.33-18.85-5.39-8.98-17.76-16.92-29.61-15.13-9.88,1.5-16.82,9.38-18.89,11.73-5.6,6.36-6.47,11.95-9.51,11.87-3-.08-3.39-5.56-8.56-11.87-1.49-1.82-8.26-10.09-18.33-11.73-11.65-1.9-23.66,5.71-29.22,14.28-4.78,7.36-4.15,14.66-3.72,19.69,1.28,14.95,10.37,25.55,15.13,30.32,1.26,1.27,7.71,7.69,20.92,20.34,5.51,5.28,11.3,10.76,17.59,15.69.75.59,7.7,6.01,7.7,6.01Z"/></g></svg>